<?xml version="1.0" encoding="UTF-8" standalone="no"?>
<!DOCTYPE svg PUBLIC "-//W3C//DTD SVG 1.1//EN"
 "http://www.w3.org/Graphics/SVG/1.1/DTD/svg11.dtd">
<!-- Generated by graphviz version 2.43.0 (0)
 -->
<!-- Title: %3 Pages: 1 -->
<svg width="1319pt" height="1134pt"
 viewBox="0.00 0.00 1318.85 1134.00" xmlns="http://www.w3.org/2000/svg" xmlns:xlink="http://www.w3.org/1999/xlink">
<g id="graph0" class="graph" transform="scale(1 1) rotate(0) translate(4 1130)">
<title>%3</title>
<polygon fill="white" stroke="transparent" points="-4,4 -4,-1130 1314.85,-1130 1314.85,4 -4,4"/>
<g id="clust6" class="cluster">
<title>legend</title>
<polygon fill="lightgray" stroke="black" points="8,-588 8,-825 525.68,-825 525.68,-588 8,-588"/>
<text text-anchor="middle" x="266.84" y="-809.8" font-family="Times,serif" font-size="14.00">Legend</text>
</g>
<!-- rdf&#45;99 -->
<g id="node1" class="node">
<title>rdf&#45;99</title>
<g id="a_node1"><a xlink:href="https://www.w3.org/TR/1999/REC-rdf-syntax-19990222/" xlink:title="REC&#45;rdf&#45;syntax (1999)">
<polygon fill="white" stroke="black" points="226.19,-125 50.19,-125 50.19,-89 226.19,-89 226.19,-125"/>
<text text-anchor="middle" x="138.19" y="-103.3" font-family="Times,serif" font-size="14.00">REC&#45;rdf&#45;syntax (1999)</text>
</a>
</g>
</g>
<!-- rdf&#45;concepts&#45;04 -->
<g id="node4" class="node">
<title>rdf&#45;concepts&#45;04</title>
<g id="a_node4"><a xlink:href="https://www.w3.org/TR/2004/REC-rdf-concepts-20040210/" xlink:title="rdf&#45;concepts (2004)">
<polygon fill="white" stroke="black" points="593.38,-166 438.38,-166 438.38,-130 593.38,-130 593.38,-166"/>
<text text-anchor="middle" x="515.88" y="-144.3" font-family="Times,serif" font-size="14.00">rdf&#45;concepts (2004)</text>
</a>
</g>
</g>
<!-- rdf&#45;99&#45;&gt;rdf&#45;concepts&#45;04 -->
<g id="edge11" class="edge">
<title>rdf&#45;99&#45;&gt;rdf&#45;concepts&#45;04</title>
<path fill="none" stroke="black" stroke-dasharray="1,5" d="M226.32,-116.51C290.38,-123.5 376.61,-132.91 438.09,-139.62"/>
</g>
<!-- rdf&#45;syntax&#45;grammar&#45;04 -->
<g id="node7" class="node">
<title>rdf&#45;syntax&#45;grammar&#45;04</title>
<g id="a_node7"><a xlink:href="https://www.w3.org/TR/2004/REC-rdf-syntax-grammar-20040210/" xlink:title="rdf&#45;syntax&#45;grammar (2004)">
<polygon fill="white" stroke="black" points="620.38,-89 411.38,-89 411.38,-53 620.38,-53 620.38,-89"/>
<text text-anchor="middle" x="515.88" y="-67.3" font-family="Times,serif" font-size="14.00">rdf&#45;syntax&#45;grammar (2004)</text>
</a>
</g>
</g>
<!-- rdf&#45;99&#45;&gt;rdf&#45;syntax&#45;grammar&#45;04 -->
<g id="edge13" class="edge">
<title>rdf&#45;99&#45;&gt;rdf&#45;syntax&#45;grammar&#45;04</title>
<path fill="none" stroke="black" stroke-dasharray="1,5" d="M226.32,-98.65C281.49,-93.36 353.11,-86.5 411.19,-80.94"/>
</g>
<!-- rdfs&#45;00 -->
<g id="node2" class="node">
<title>rdfs&#45;00</title>
<g id="a_node2"><a xlink:href="https://www.w3.org/TR/2000/CR-rdf-schema-20000327/" xlink:title="CR&#45;rdf&#45;schema (2000)">
<polygon fill="white" stroke="black" points="224.19,-262 52.19,-262 52.19,-226 224.19,-226 224.19,-262"/>
<text text-anchor="middle" x="138.19" y="-240.3" font-family="Times,serif" font-size="14.00">CR&#45;rdf&#45;schema (2000)</text>
</a>
</g>
</g>
<!-- rdf&#45;schema&#45;04 -->
<g id="node5" class="node">
<title>rdf&#45;schema&#45;04</title>
<g id="a_node5"><a xlink:href="https://www.w3.org/TR/2004/REC-rdf-schema-20040210/" xlink:title="rdf&#45;schema (2004)">
<polygon fill="white" stroke="black" points="588.88,-296 442.88,-296 442.88,-260 588.88,-260 588.88,-296"/>
<text text-anchor="middle" x="515.88" y="-274.3" font-family="Times,serif" font-size="14.00">rdf&#45;schema (2004)</text>
</a>
</g>
</g>
<!-- rdfs&#45;00&#45;&gt;rdf&#45;schema&#45;04 -->
<g id="edge15" class="edge">
<title>rdfs&#45;00&#45;&gt;rdf&#45;schema&#45;04</title>
<path fill="none" stroke="black" stroke-dasharray="1,5" d="M224.44,-251.72C290.25,-257.67 380.3,-265.82 442.61,-271.46"/>
</g>
<!-- rdf&#45;schema -->
<g id="node25" class="node">
<title>rdf&#45;schema</title>
<g id="a_node25"><a xlink:href="https://www.w3.org/TR/rdf-schema/" xlink:title="rdf&#45;schema">
<ellipse fill="white" stroke="black" cx="1006.07" cy="-270" rx="61.99" ry="18"/>
<text text-anchor="middle" x="1006.07" y="-266.3" font-family="Times,serif" font-size="14.00">rdf&#45;schema</text>
</a>
</g>
</g>
<!-- rdfs&#45;00&#45;&gt;rdf&#45;schema -->
<g id="edge7" class="edge">
<title>rdfs&#45;00&#45;&gt;rdf&#45;schema</title>
<path fill="none" stroke="black" d="M224.39,-244.34C320.58,-244.94 481.76,-246.57 620.38,-251 730.55,-254.52 858.35,-261.39 935.39,-265.83"/>
<polygon fill="none" stroke="black" points="935.27,-269.33 945.45,-266.41 935.67,-262.34 935.27,-269.33"/>
</g>
<!-- rdf&#45;primer&#45;04 -->
<g id="node3" class="node">
<title>rdf&#45;primer&#45;04</title>
<g id="a_node3"><a xlink:href="https://www.w3.org/TR/2004/REC-rdf-primer-20040210/" xlink:title="rdf&#45;primer (2004)">
<polygon fill="white" stroke="black" points="586.38,-426 445.38,-426 445.38,-390 586.38,-390 586.38,-426"/>
<text text-anchor="middle" x="515.88" y="-404.3" font-family="Times,serif" font-size="14.00">rdf&#45;primer (2004)</text>
</a>
</g>
</g>
<!-- rdf&#45;primer&#45;14 -->
<g id="node9" class="node">
<title>rdf&#45;primer&#45;14</title>
<g id="a_node9"><a xlink:href="https://www.w3.org/TR/2014/NOTE-rdf11-primer-20140624/" xlink:title="rdf&#45;primer11 (2014)">
<polygon fill="white" stroke="black" points="841.38,-426 682.38,-426 682.38,-390 841.38,-390 841.38,-426"/>
<text text-anchor="middle" x="761.88" y="-404.3" font-family="Times,serif" font-size="14.00">rdf&#45;primer11 (2014)</text>
</a>
</g>
</g>
<!-- rdf&#45;primer&#45;04&#45;&gt;rdf&#45;primer&#45;14 -->
<g id="edge2" class="edge">
<title>rdf&#45;primer&#45;04&#45;&gt;rdf&#45;primer&#45;14</title>
<path fill="none" stroke="black" d="M586.47,-401.84C613.07,-401.2 643.77,-401.08 671.92,-401.48"/>
<polygon fill="black" stroke="black" points="672.12,-404.98 682.17,-401.64 672.23,-397.98 672.12,-404.98"/>
</g>
<!-- rdf&#45;primer&#45;04&#45;&gt;rdf&#45;primer&#45;14 -->
<g id="edge17" class="edge">
<title>rdf&#45;primer&#45;04&#45;&gt;rdf&#45;primer&#45;14</title>
<path fill="none" stroke="black" stroke-dasharray="1,5" d="M586.47,-414.16C616.33,-414.87 651.37,-414.94 682.17,-414.36"/>
</g>
<!-- rdf&#45;primer -->
<g id="node23" class="node">
<title>rdf&#45;primer</title>
<g id="a_node23"><a xlink:href="https://www.w3.org/TR/rdf-primer/" xlink:title="rdf&#45;primer">
<ellipse fill="white" stroke="black" cx="1006.07" cy="-362" rx="58.49" ry="18"/>
<text text-anchor="middle" x="1006.07" y="-358.3" font-family="Times,serif" font-size="14.00">rdf&#45;primer</text>
</a>
</g>
</g>
<!-- rdf&#45;primer&#45;04&#45;&gt;rdf&#45;primer -->
<g id="edge22" class="edge">
<title>rdf&#45;primer&#45;04&#45;&gt;rdf&#45;primer</title>
<path fill="none" stroke="black" d="M596.52,-390.76C616.32,-387 637.55,-383.44 657.38,-381 758.93,-368.53 878.18,-364.24 947.34,-362.77"/>
<polygon fill="black" stroke="black" points="586.62,-392.67 595.58,-386.35 591.53,-391.72 596.44,-390.77 596.44,-390.77 596.44,-390.77 591.53,-391.72 597.29,-395.19 586.62,-392.67 586.62,-392.67"/>
</g>
<!-- rdf&#45;concepts&#45;14 -->
<g id="node10" class="node">
<title>rdf&#45;concepts&#45;14</title>
<g id="a_node10"><a xlink:href="https://www.w3.org/TR/2014/REC-rdf11-concepts-20140225/" xlink:title="rdf11&#45;concept (2014)">
<polygon fill="white" stroke="black" points="845.38,-166 678.38,-166 678.38,-130 845.38,-130 845.38,-166"/>
<text text-anchor="middle" x="761.88" y="-144.3" font-family="Times,serif" font-size="14.00">rdf11&#45;concept (2014)</text>
</a>
</g>
</g>
<!-- rdf&#45;concepts&#45;04&#45;&gt;rdf&#45;concepts&#45;14 -->
<g id="edge3" class="edge">
<title>rdf&#45;concepts&#45;04&#45;&gt;rdf&#45;concepts&#45;14</title>
<path fill="none" stroke="black" d="M593.41,-141.69C617.12,-141.21 643.5,-141.12 668.18,-141.43"/>
<polygon fill="black" stroke="black" points="668.22,-144.93 678.27,-141.57 668.32,-137.93 668.22,-144.93"/>
</g>
<!-- rdf&#45;concepts&#45;04&#45;&gt;rdf&#45;concepts&#45;14 -->
<g id="edge12" class="edge">
<title>rdf&#45;concepts&#45;04&#45;&gt;rdf&#45;concepts&#45;14</title>
<path fill="none" stroke="black" stroke-dasharray="1,5" d="M593.41,-154.31C620.39,-154.85 650.82,-154.89 678.27,-154.43"/>
</g>
<!-- rdf&#45;concepts -->
<g id="node24" class="node">
<title>rdf&#45;concepts</title>
<g id="a_node24"><a xlink:href="https://www.w3.org/TR/rdf-concepts/" xlink:title="rdf&#45;concepts">
<ellipse fill="white" stroke="black" cx="1006.07" cy="-194" rx="67.69" ry="18"/>
<text text-anchor="middle" x="1006.07" y="-190.3" font-family="Times,serif" font-size="14.00">rdf&#45;concepts</text>
</a>
</g>
</g>
<!-- rdf&#45;concepts&#45;04&#45;&gt;rdf&#45;concepts -->
<g id="edge23" class="edge">
<title>rdf&#45;concepts&#45;04&#45;&gt;rdf&#45;concepts</title>
<path fill="none" stroke="black" d="M603.8,-166.6C621.46,-169.85 639.96,-172.86 657.38,-175 754.73,-186.96 868.35,-191.39 938.5,-193.03"/>
<polygon fill="black" stroke="black" points="593.51,-164.67 604.17,-162.09 598.43,-165.59 603.34,-166.52 603.34,-166.52 603.34,-166.52 598.43,-165.59 602.51,-170.94 593.51,-164.67 593.51,-164.67"/>
</g>
<!-- rdf&#45;schema&#45;14 -->
<g id="node11" class="node">
<title>rdf&#45;schema&#45;14</title>
<g id="a_node11"><a xlink:href="https://www.w3.org/TR/2014/REC-rdf-schema-20140225/" xlink:title="rdf&#45;schema (2014)">
<polygon fill="white" stroke="black" points="834.88,-334 688.88,-334 688.88,-298 834.88,-298 834.88,-334"/>
<text text-anchor="middle" x="761.88" y="-312.3" font-family="Times,serif" font-size="14.00">rdf&#45;schema (2014)</text>
</a>
</g>
</g>
<!-- rdf&#45;schema&#45;04&#45;&gt;rdf&#45;schema&#45;14 -->
<g id="edge16" class="edge">
<title>rdf&#45;schema&#45;04&#45;&gt;rdf&#45;schema&#45;14</title>
<path fill="none" stroke="black" stroke-dasharray="1,5" d="M589.1,-289.25C620.57,-294.15 657.39,-299.88 688.85,-304.78"/>
</g>
<!-- rdf&#45;schema&#45;04&#45;&gt;rdf&#45;schema -->
<g id="edge8" class="edge">
<title>rdf&#45;schema&#45;04&#45;&gt;rdf&#45;schema</title>
<path fill="none" stroke="black" d="M588.91,-276.82C681.71,-275.3 842.02,-272.67 934.23,-271.16"/>
<polygon fill="none" stroke="black" points="934.37,-274.66 944.31,-271 934.26,-267.66 934.37,-274.66"/>
</g>
<!-- rdf&#45;mt&#45;04 -->
<g id="node6" class="node">
<title>rdf&#45;mt&#45;04</title>
<g id="a_node6"><a xlink:href="https://www.w3.org/TR/2004/REC-rdf-mt-20040210/" xlink:title="rdf&#45;mt (2004)">
<polygon fill="white" stroke="black" points="571.88,-518 459.88,-518 459.88,-482 571.88,-482 571.88,-518"/>
<text text-anchor="middle" x="515.88" y="-496.3" font-family="Times,serif" font-size="14.00">rdf&#45;mt (2004)</text>
</a>
</g>
</g>
<!-- rdf&#45;mt&#45;14 -->
<g id="node12" class="node">
<title>rdf&#45;mt&#45;14</title>
<g id="a_node12"><a xlink:href="https://www.w3.org/TR/2014/REC-rdf11-mt-20140225/" xlink:title="rdf11&#45;mt (2014)">
<polygon fill="white" stroke="black" points="827.38,-518 696.38,-518 696.38,-482 827.38,-482 827.38,-518"/>
<text text-anchor="middle" x="761.88" y="-496.3" font-family="Times,serif" font-size="14.00">rdf11&#45;mt (2014)</text>
</a>
</g>
</g>
<!-- rdf&#45;mt&#45;04&#45;&gt;rdf&#45;mt&#45;14 -->
<g id="edge4" class="edge">
<title>rdf&#45;mt&#45;04&#45;&gt;rdf&#45;mt&#45;14</title>
<path fill="none" stroke="black" d="M571.94,-494.25C605.6,-493.13 649.11,-492.95 685.89,-493.72"/>
<polygon fill="black" stroke="black" points="685.99,-497.22 696.07,-493.96 686.16,-490.22 685.99,-497.22"/>
</g>
<!-- rdf&#45;mt&#45;04&#45;&gt;rdf&#45;mt&#45;14 -->
<g id="edge18" class="edge">
<title>rdf&#45;mt&#45;04&#45;&gt;rdf&#45;mt&#45;14</title>
<path fill="none" stroke="black" stroke-dasharray="1,5" d="M571.94,-505.75C608.77,-506.98 657.38,-507.07 696.07,-506.04"/>
</g>
<!-- rdf&#45;mt -->
<g id="node26" class="node">
<title>rdf&#45;mt</title>
<g id="a_node26"><a xlink:href="https://www.w3.org/TR/rdf-mt/" xlink:title="rdf&#45;mt">
<ellipse fill="white" stroke="black" cx="1006.07" cy="-454" rx="39.79" ry="18"/>
<text text-anchor="middle" x="1006.07" y="-450.3" font-family="Times,serif" font-size="14.00">rdf&#45;mt</text>
</a>
</g>
</g>
<!-- rdf&#45;mt&#45;04&#45;&gt;rdf&#45;mt -->
<g id="edge25" class="edge">
<title>rdf&#45;mt&#45;04&#45;&gt;rdf&#45;mt</title>
<path fill="none" stroke="black" d="M581.91,-485.6C605.56,-480.87 632.57,-476.05 657.38,-473 768.98,-459.29 901.96,-455.47 966.33,-454.41"/>
<polygon fill="black" stroke="black" points="571.99,-487.62 580.89,-481.22 576.89,-486.62 581.79,-485.63 581.79,-485.63 581.79,-485.63 576.89,-486.62 582.69,-490.04 571.99,-487.62 571.99,-487.62"/>
</g>
<!-- rdf&#45;syntax&#45;grammar&#45;14 -->
<g id="node13" class="node">
<title>rdf&#45;syntax&#45;grammar&#45;14</title>
<g id="a_node13"><a xlink:href="https://www.w3.org/TR/2014/REC-rdf-syntax-grammar-20140225/" xlink:title="rdf&#45;syntax&#45;grammar (2014)">
<polygon fill="white" stroke="black" points="866.38,-36 657.38,-36 657.38,0 866.38,0 866.38,-36"/>
<text text-anchor="middle" x="761.88" y="-14.3" font-family="Times,serif" font-size="14.00">rdf&#45;syntax&#45;grammar (2014)</text>
</a>
</g>
</g>
<!-- rdf&#45;syntax&#45;grammar&#45;04&#45;&gt;rdf&#45;syntax&#45;grammar&#45;14 -->
<g id="edge14" class="edge">
<title>rdf&#45;syntax&#45;grammar&#45;04&#45;&gt;rdf&#45;syntax&#45;grammar&#45;14</title>
<path fill="none" stroke="black" stroke-dasharray="1,5" d="M599.83,-52.98C624.97,-47.52 652.59,-41.52 677.75,-36.06"/>
</g>
<!-- REC&#45;rdf&#45;syntax -->
<g id="node22" class="node">
<title>REC&#45;rdf&#45;syntax</title>
<g id="a_node22"><a xlink:href="https://www.w3.org/TR/REC-rdf-syntax/" xlink:title="REC&#45;rdf&#45;syntax">
<ellipse fill="white" stroke="black" cx="1006.07" cy="-102" rx="81.49" ry="18"/>
<text text-anchor="middle" x="1006.07" y="-98.3" font-family="Times,serif" font-size="14.00">REC&#45;rdf&#45;syntax</text>
</a>
</g>
</g>
<!-- rdf&#45;syntax&#45;grammar&#45;04&#45;&gt;REC&#45;rdf&#45;syntax -->
<g id="edge20" class="edge">
<title>rdf&#45;syntax&#45;grammar&#45;04&#45;&gt;REC&#45;rdf&#45;syntax</title>
<path fill="none" stroke="black" d="M630.68,-78.5C633.27,-78.67 635.84,-78.84 638.38,-79 738.16,-85.41 853.23,-92.6 927.45,-97.2"/>
<polygon fill="black" stroke="black" points="620.61,-77.85 630.88,-74.01 625.6,-78.17 630.59,-78.5 630.59,-78.5 630.59,-78.5 625.6,-78.17 630.3,-82.99 620.61,-77.85 620.61,-77.85"/>
</g>
<!-- rdf&#45;syntax&#45;grammar -->
<g id="node27" class="node">
<title>rdf&#45;syntax&#45;grammar</title>
<g id="a_node27"><a xlink:href="https://www.w3.org/TR/rdf-syntax-grammar/" xlink:title="rdf&#45;syntax&#45;grammar">
<ellipse fill="white" stroke="black" cx="1006.07" cy="-44" rx="102.88" ry="18"/>
<text text-anchor="middle" x="1006.07" y="-40.3" font-family="Times,serif" font-size="14.00">rdf&#45;syntax&#45;grammar</text>
</a>
</g>
</g>
<!-- rdf&#45;syntax&#45;grammar&#45;04&#45;&gt;rdf&#45;syntax&#45;grammar -->
<g id="edge9" class="edge">
<title>rdf&#45;syntax&#45;grammar&#45;04&#45;&gt;rdf&#45;syntax&#45;grammar</title>
<path fill="none" stroke="black" d="M620.41,-65.27C701.96,-60.76 815.25,-54.5 897.76,-49.94"/>
<polygon fill="none" stroke="black" points="898.12,-53.42 907.92,-49.37 897.74,-46.43 898.12,-53.42"/>
</g>
<!-- rdf&#45;testcases&#45;04 -->
<g id="node8" class="node">
<title>rdf&#45;testcases&#45;04</title>
<g id="a_node8"><a xlink:href="https://www.w3.org/TR/2004/REC-rdf-testcases-20040210/" xlink:title="rdf&#45;testcases (2004)">
<polygon fill="white" stroke="black" points="595.38,-580 436.38,-580 436.38,-544 595.38,-544 595.38,-580"/>
<text text-anchor="middle" x="515.88" y="-558.3" font-family="Times,serif" font-size="14.00">rdf&#45;testcases (2004)</text>
</a>
</g>
</g>
<!-- rdf&#45;testcases&#45;14 -->
<g id="node18" class="node">
<title>rdf&#45;testcases&#45;14</title>
<g id="a_node18"><a xlink:href="https://www.w3.org/TR/2014/NOTE-rdf11-testcases-20140225/" xlink:title="rdf11&#45;testcases (2014)">
<polygon fill="white" stroke="black" points="844.88,-618 672.88,-618 672.88,-582 850.88,-582 850.88,-612 844.88,-618"/>
<polyline fill="none" stroke="black" points="844.88,-618 844.88,-612 "/>
<polyline fill="none" stroke="black" points="850.88,-612 844.88,-612 "/>
<text text-anchor="middle" x="761.88" y="-596.3" font-family="Times,serif" font-size="14.00">rdf11&#45;testcases (2014)</text>
</a>
</g>
</g>
<!-- rdf&#45;testcases&#45;04&#45;&gt;rdf&#45;testcases&#45;14 -->
<g id="edge5" class="edge">
<title>rdf&#45;testcases&#45;04&#45;&gt;rdf&#45;testcases&#45;14</title>
<path fill="none" stroke="black" d="M595.42,-574.23C616.81,-577.56 640.24,-581.21 662.57,-584.69"/>
<polygon fill="black" stroke="black" points="662.32,-588.19 672.74,-586.27 663.4,-581.28 662.32,-588.19"/>
</g>
<!-- rdf&#45;testcases -->
<g id="node28" class="node">
<title>rdf&#45;testcases</title>
<g id="a_node28"><a xlink:href="https://www.w3.org/TR/rdf-testcases/" xlink:title="rdf&#45;testcases">
<ellipse fill="white" stroke="black" cx="1006.07" cy="-554" rx="70.39" ry="18"/>
<text text-anchor="middle" x="1006.07" y="-550.3" font-family="Times,serif" font-size="14.00">rdf&#45;testcases</text>
</a>
</g>
</g>
<!-- rdf&#45;testcases&#45;04&#45;&gt;rdf&#45;testcases -->
<g id="edge26" class="edge">
<title>rdf&#45;testcases&#45;04&#45;&gt;rdf&#45;testcases</title>
<path fill="none" stroke="black" d="M605.75,-560.54C700.76,-558.99 849.38,-556.55 935.99,-555.13"/>
<polygon fill="black" stroke="black" points="595.59,-560.71 605.51,-556.05 600.59,-560.63 605.58,-560.55 605.58,-560.55 605.58,-560.55 600.59,-560.63 605.66,-565.05 595.59,-560.71 595.59,-560.71"/>
</g>
<!-- rdf11&#45;primer -->
<g id="node36" class="node">
<title>rdf11&#45;primer</title>
<g id="a_node36"><a xlink:href="https://www.w3.org/TR/rdf11-primer/" xlink:title="rdf11&#45;primer">
<ellipse fill="none" stroke="black" stroke-dasharray="1,5" cx="1228.3" cy="-395" rx="70.69" ry="18"/>
<text text-anchor="middle" x="1228.3" y="-391.3" font-family="Times,serif" font-size="14.00">rdf11&#45;primer</text>
</a>
</g>
</g>
<!-- rdf&#45;primer&#45;14&#45;&gt;rdf11&#45;primer -->
<g id="edge30" class="edge">
<title>rdf&#45;primer&#45;14&#45;&gt;rdf11&#45;primer</title>
<path fill="none" stroke="black" d="M851.48,-405.52C940.5,-403.03 1075.89,-399.24 1157.55,-396.95"/>
<polygon fill="black" stroke="black" points="841.4,-405.8 851.27,-401.02 846.4,-405.66 851.39,-405.52 851.39,-405.52 851.39,-405.52 846.4,-405.66 851.52,-410.02 841.4,-405.8 841.4,-405.8"/>
</g>
<!-- rdf11&#45;concepts -->
<g id="node37" class="node">
<title>rdf11&#45;concepts</title>
<g id="a_node37"><a xlink:href="https://www.w3.org/TR/rdf11-concepts/" xlink:title="rdf11&#45;concepts">
<ellipse fill="none" stroke="black" stroke-dasharray="1,5" cx="1228.3" cy="-166" rx="79.89" ry="18"/>
<text text-anchor="middle" x="1228.3" y="-162.3" font-family="Times,serif" font-size="14.00">rdf11&#45;concepts</text>
</a>
</g>
</g>
<!-- rdf&#45;concepts&#45;14&#45;&gt;rdf11&#45;concepts -->
<g id="edge31" class="edge">
<title>rdf&#45;concepts&#45;14&#45;&gt;rdf11&#45;concepts</title>
<path fill="none" stroke="black" d="M855.66,-151.6C941.66,-154.93 1068.17,-159.83 1149.15,-162.97"/>
<polygon fill="black" stroke="black" points="845.64,-151.21 855.81,-147.1 850.64,-151.4 855.63,-151.6 855.63,-151.6 855.63,-151.6 850.64,-151.4 855.46,-156.09 845.64,-151.21 845.64,-151.21"/>
</g>
<!-- rdf&#45;schema&#45;14&#45;&gt;rdf&#45;schema -->
<g id="edge24" class="edge">
<title>rdf&#45;schema&#45;14&#45;&gt;rdf&#45;schema</title>
<path fill="none" stroke="black" d="M844.9,-300.42C880.92,-293.58 922.12,-285.76 953.7,-279.76"/>
<polygon fill="black" stroke="black" points="834.89,-302.32 843.87,-296.04 839.8,-301.39 844.71,-300.46 844.71,-300.46 844.71,-300.46 839.8,-301.39 845.55,-304.88 834.89,-302.32 834.89,-302.32"/>
</g>
<!-- rdf11&#45;mt -->
<g id="node38" class="node">
<title>rdf11&#45;mt</title>
<g id="a_node38"><a xlink:href="https://www.w3.org/TR/rdf11-mt/" xlink:title="rdf11&#45;mt">
<ellipse fill="none" stroke="black" stroke-dasharray="1,5" cx="1228.3" cy="-477" rx="51.99" ry="18"/>
<text text-anchor="middle" x="1228.3" y="-473.3" font-family="Times,serif" font-size="14.00">rdf11&#45;mt</text>
</a>
</g>
</g>
<!-- rdf&#45;mt&#45;14&#45;&gt;rdf11&#45;mt -->
<g id="edge32" class="edge">
<title>rdf&#45;mt&#45;14&#45;&gt;rdf11&#45;mt</title>
<path fill="none" stroke="black" d="M837.58,-496.3C932.69,-491.59 1094.5,-483.58 1176.47,-479.52"/>
<polygon fill="black" stroke="black" points="827.45,-496.8 837.22,-491.81 832.45,-496.55 837.44,-496.31 837.44,-496.31 837.44,-496.31 832.45,-496.55 837.66,-500.8 827.45,-496.8 827.45,-496.8"/>
</g>
<!-- rdf&#45;syntax&#45;grammar&#45;14&#45;&gt;rdf&#45;syntax&#45;grammar -->
<g id="edge21" class="edge">
<title>rdf&#45;syntax&#45;grammar&#45;14&#45;&gt;rdf&#45;syntax&#45;grammar</title>
<path fill="none" stroke="black" d="M876.69,-30.22C890.54,-31.7 904.51,-33.2 917.88,-34.64"/>
<polygon fill="black" stroke="black" points="866.64,-29.14 877.07,-25.73 871.61,-29.67 876.59,-30.21 876.59,-30.21 876.59,-30.21 871.61,-29.67 876.11,-34.68 866.64,-29.14 866.64,-29.14"/>
</g>
<!-- turtle&#45;14 -->
<g id="node14" class="node">
<title>turtle&#45;14</title>
<g id="a_node14"><a xlink:href="https://www.w3.org/TR/2014/REC-turtle-20140225/" xlink:title="turtle (2014)">
<polygon fill="white" stroke="black" points="815.88,-672 707.88,-672 707.88,-636 815.88,-636 815.88,-672"/>
<text text-anchor="middle" x="761.88" y="-650.3" font-family="Times,serif" font-size="14.00">turtle (2014)</text>
</a>
</g>
</g>
<!-- turtle -->
<g id="node32" class="node">
<title>turtle</title>
<g id="a_node32"><a xlink:href="https://www.w3.org/TR/turtle/" xlink:title="turtle">
<ellipse fill="white" stroke="black" cx="1006.07" cy="-654" rx="37.09" ry="18"/>
<text text-anchor="middle" x="1006.07" y="-650.3" font-family="Times,serif" font-size="14.00">turtle</text>
</a>
</g>
</g>
<!-- turtle&#45;14&#45;&gt;turtle -->
<g id="edge36" class="edge">
<title>turtle&#45;14&#45;&gt;turtle</title>
<path fill="none" stroke="black" d="M826.08,-654C871.55,-654 931.26,-654 968.91,-654"/>
<polygon fill="black" stroke="black" points="816.03,-654 826.03,-649.5 821.03,-654 826.03,-654 826.03,-654 826.03,-654 821.03,-654 826.03,-658.5 816.03,-654 816.03,-654"/>
</g>
<!-- trig&#45;14 -->
<g id="node15" class="node">
<title>trig&#45;14</title>
<g id="a_node15"><a xlink:href="https://www.w3.org/TR/2014/REC-trig-20140225/" xlink:title="trig (2014)">
<polygon fill="white" stroke="black" points="808.88,-726 714.88,-726 714.88,-690 808.88,-690 808.88,-726"/>
<text text-anchor="middle" x="761.88" y="-704.3" font-family="Times,serif" font-size="14.00">trig (2014)</text>
</a>
</g>
</g>
<!-- trig -->
<g id="node33" class="node">
<title>trig</title>
<g id="a_node33"><a xlink:href="https://www.w3.org/TR/trig/" xlink:title="trig">
<ellipse fill="white" stroke="black" cx="1006.07" cy="-708" rx="27.9" ry="18"/>
<text text-anchor="middle" x="1006.07" y="-704.3" font-family="Times,serif" font-size="14.00">trig</text>
</a>
</g>
</g>
<!-- trig&#45;14&#45;&gt;trig -->
<g id="edge37" class="edge">
<title>trig&#45;14&#45;&gt;trig</title>
<path fill="none" stroke="black" d="M819.31,-708C869.16,-708 939.7,-708 977.92,-708"/>
<polygon fill="black" stroke="black" points="809,-708 819,-703.5 814,-708 819,-708 819,-708 819,-708 814,-708 819,-712.5 809,-708 809,-708"/>
</g>
<!-- n&#45;triples&#45;14 -->
<g id="node16" class="node">
<title>n&#45;triples&#45;14</title>
<g id="a_node16"><a xlink:href="https://www.w3.org/TR/2014/REC-n-triples-20140225/" xlink:title="n&#45;triples (2014)">
<polygon fill="white" stroke="black" points="825.88,-780 697.88,-780 697.88,-744 825.88,-744 825.88,-780"/>
<text text-anchor="middle" x="761.88" y="-758.3" font-family="Times,serif" font-size="14.00">n&#45;triples (2014)</text>
</a>
</g>
</g>
<!-- n&#45;triples -->
<g id="node34" class="node">
<title>n&#45;triples</title>
<g id="a_node34"><a xlink:href="https://www.w3.org/TR/n-triples/" xlink:title="n&#45;triples">
<ellipse fill="white" stroke="black" cx="1006.07" cy="-762" rx="50.09" ry="18"/>
<text text-anchor="middle" x="1006.07" y="-758.3" font-family="Times,serif" font-size="14.00">n&#45;triples</text>
</a>
</g>
</g>
<!-- n&#45;triples&#45;14&#45;&gt;n&#45;triples -->
<g id="edge38" class="edge">
<title>n&#45;triples&#45;14&#45;&gt;n&#45;triples</title>
<path fill="none" stroke="black" d="M836.06,-762C874.8,-762 921.33,-762 955.75,-762"/>
<polygon fill="black" stroke="black" points="825.88,-762 835.88,-757.5 830.88,-762 835.88,-762 835.88,-762 835.88,-762 830.88,-762 835.88,-766.5 825.88,-762 825.88,-762"/>
</g>
<!-- n&#45;quads&#45;14 -->
<g id="node17" class="node">
<title>n&#45;quads&#45;14</title>
<g id="a_node17"><a xlink:href="https://www.w3.org/TR/2014/REC-n-quads-20140225/" xlink:title="n&#45;quads (2014)">
<polygon fill="white" stroke="black" points="823.88,-834 699.88,-834 699.88,-798 823.88,-798 823.88,-834"/>
<text text-anchor="middle" x="761.88" y="-812.3" font-family="Times,serif" font-size="14.00">n&#45;quads (2014)</text>
</a>
</g>
</g>
<!-- n&#45;quads -->
<g id="node35" class="node">
<title>n&#45;quads</title>
<g id="a_node35"><a xlink:href="https://www.w3.org/TR/n-quads/" xlink:title="n&#45;quads">
<ellipse fill="white" stroke="black" cx="1006.07" cy="-816" rx="47.39" ry="18"/>
<text text-anchor="middle" x="1006.07" y="-812.3" font-family="Times,serif" font-size="14.00">n&#45;quads</text>
</a>
</g>
</g>
<!-- n&#45;quads&#45;14&#45;&gt;n&#45;quads -->
<g id="edge39" class="edge">
<title>n&#45;quads&#45;14&#45;&gt;n&#45;quads</title>
<path fill="none" stroke="black" d="M834,-816C874.17,-816 923.23,-816 958.5,-816"/>
<polygon fill="black" stroke="black" points="823.99,-816 833.99,-811.5 828.99,-816 833.99,-816 833.99,-816 833.99,-816 828.99,-816 833.99,-820.5 823.99,-816 823.99,-816"/>
</g>
<!-- rdf11&#45;testcases -->
<g id="node39" class="node">
<title>rdf11&#45;testcases</title>
<g id="a_node39"><a xlink:href="https://www.w3.org/TR/rdf11-testcases/" xlink:title="rdf11&#45;testcases">
<ellipse fill="none" stroke="black" stroke-dasharray="1,5" cx="1228.3" cy="-577" rx="82.59" ry="18"/>
<text text-anchor="middle" x="1228.3" y="-573.3" font-family="Times,serif" font-size="14.00">rdf11&#45;testcases</text>
</a>
</g>
</g>
<!-- rdf&#45;testcases&#45;14&#45;&gt;rdf11&#45;testcases -->
<g id="edge33" class="edge">
<title>rdf&#45;testcases&#45;14&#45;&gt;rdf11&#45;testcases</title>
<path fill="none" stroke="black" d="M861.26,-595.13C946.53,-590.91 1068.33,-584.87 1147.61,-580.95"/>
<polygon fill="black" stroke="black" points="851.05,-595.63 860.82,-590.64 856.05,-595.39 861.04,-595.14 861.04,-595.14 861.04,-595.14 856.05,-595.39 861.26,-599.63 851.05,-595.63 851.05,-595.63"/>
</g>
<!-- rdf&#45;new&#45;14 -->
<g id="node19" class="node">
<title>rdf&#45;new&#45;14</title>
<g id="a_node19"><a xlink:href="https://www.w3.org/TR/2014/NOTE-rdf11-new-20140225/" xlink:title="rdf&#45;new (2014)">
<polygon fill="white" stroke="black" points="816.88,-898 700.88,-898 700.88,-862 822.88,-862 822.88,-892 816.88,-898"/>
<polyline fill="none" stroke="black" points="816.88,-898 816.88,-892 "/>
<polyline fill="none" stroke="black" points="822.88,-892 816.88,-892 "/>
<text text-anchor="middle" x="761.88" y="-876.3" font-family="Times,serif" font-size="14.00">rdf&#45;new (2014)</text>
</a>
</g>
</g>
<!-- rdf&#45;new -->
<g id="node29" class="node">
<title>rdf&#45;new</title>
<g id="a_node29"><a xlink:href="https://www.w3.org/TR/rdf-new/" xlink:title="rdf&#45;new">
<ellipse fill="white" stroke="black" cx="1006.07" cy="-908" rx="46.29" ry="18"/>
<text text-anchor="middle" x="1006.07" y="-904.3" font-family="Times,serif" font-size="14.00">rdf&#45;new</text>
</a>
</g>
</g>
<!-- rdf&#45;new&#45;14&#45;&gt;rdf&#45;new -->
<g id="edge27" class="edge">
<title>rdf&#45;new&#45;14&#45;&gt;rdf&#45;new</title>
<path fill="none" stroke="black" d="M833.11,-888.12C874.62,-892.92 925.88,-898.84 961.58,-902.97"/>
<polygon fill="black" stroke="black" points="823.06,-886.96 833.51,-883.64 828.02,-887.53 832.99,-888.11 832.99,-888.11 832.99,-888.11 828.02,-887.53 832.47,-892.58 823.06,-886.96 823.06,-886.96"/>
</g>
<!-- rdf11&#45;new -->
<g id="node40" class="node">
<title>rdf11&#45;new</title>
<g id="a_node40"><a xlink:href="https://www.w3.org/TR/rdf11-new/" xlink:title="rdf11&#45;new">
<ellipse fill="none" stroke="black" stroke-dasharray="1,5" cx="1228.3" cy="-880" rx="57.69" ry="18"/>
<text text-anchor="middle" x="1228.3" y="-876.3" font-family="Times,serif" font-size="14.00">rdf11&#45;new</text>
</a>
</g>
</g>
<!-- rdf&#45;new&#45;14&#45;&gt;rdf11&#45;new -->
<g id="edge34" class="edge">
<title>rdf&#45;new&#45;14&#45;&gt;rdf11&#45;new</title>
<path fill="none" stroke="black" d="M833.2,-880C925.42,-880 1085.45,-880 1170.45,-880"/>
<polygon fill="black" stroke="black" points="823.12,-880 833.12,-875.5 828.12,-880 833.12,-880 833.12,-880 833.12,-880 828.12,-880 833.12,-884.5 823.12,-880 823.12,-880"/>
</g>
<!-- rdf&#45;datasets&#45;14 -->
<g id="node20" class="node">
<title>rdf&#45;datasets&#45;14</title>
<g id="a_node20"><a xlink:href="https://www.w3.org/TR/2014/NOTE-rdf11-datasets-20140225/" xlink:title="rdf11&#45;datasets (2014)">
<polygon fill="white" stroke="black" points="841.88,-1049 675.88,-1049 675.88,-1013 847.88,-1013 847.88,-1043 841.88,-1049"/>
<polyline fill="none" stroke="black" points="841.88,-1049 841.88,-1043 "/>
<polyline fill="none" stroke="black" points="847.88,-1043 841.88,-1043 "/>
<text text-anchor="middle" x="761.88" y="-1027.3" font-family="Times,serif" font-size="14.00">rdf11&#45;datasets (2014)</text>
</a>
</g>
</g>
<!-- rdf&#45;datasets -->
<g id="node30" class="node">
<title>rdf&#45;datasets</title>
<g id="a_node30"><a xlink:href="https://www.w3.org/TR/rdf-datasets/" xlink:title="rdf&#45;datasets">
<ellipse fill="white" stroke="black" cx="1006.07" cy="-1054" rx="66.09" ry="18"/>
<text text-anchor="middle" x="1006.07" y="-1050.3" font-family="Times,serif" font-size="14.00">rdf&#45;datasets</text>
</a>
</g>
</g>
<!-- rdf&#45;datasets&#45;14&#45;&gt;rdf&#45;datasets -->
<g id="edge28" class="edge">
<title>rdf&#45;datasets&#45;14&#45;&gt;rdf&#45;datasets</title>
<path fill="none" stroke="black" d="M857.95,-1040.03C886.57,-1042.75 917.22,-1045.66 943.1,-1048.11"/>
<polygon fill="black" stroke="black" points="847.93,-1039.08 858.31,-1035.54 852.9,-1039.55 857.88,-1040.02 857.88,-1040.02 857.88,-1040.02 852.9,-1039.55 857.45,-1044.5 847.93,-1039.08 847.93,-1039.08"/>
</g>
<!-- rdf11&#45;datasets -->
<g id="node41" class="node">
<title>rdf11&#45;datasets</title>
<g id="a_node41"><a xlink:href="https://www.w3.org/TR/rdf11-datasets/" xlink:title="rdf11&#45;datasets">
<ellipse fill="none" stroke="black" stroke-dasharray="1,5" cx="1228.3" cy="-985" rx="78.79" ry="18"/>
<text text-anchor="middle" x="1228.3" y="-981.3" font-family="Times,serif" font-size="14.00">rdf11&#45;datasets</text>
</a>
</g>
</g>
<!-- rdf&#45;datasets&#45;14&#45;&gt;rdf11&#45;datasets -->
<g id="edge35" class="edge">
<title>rdf&#45;datasets&#45;14&#45;&gt;rdf11&#45;datasets</title>
<path fill="none" stroke="black" d="M858.08,-1021.57C946.36,-1012.83 1075.76,-1000.01 1155.6,-992.1"/>
<polygon fill="black" stroke="black" points="848.06,-1022.56 857.57,-1017.1 853.04,-1022.07 858.01,-1021.58 858.01,-1021.58 858.01,-1021.58 853.04,-1022.07 858.46,-1026.06 848.06,-1022.56 848.06,-1022.56"/>
</g>
<!-- rdf&#45;json&#45;14 -->
<g id="node21" class="node">
<title>rdf&#45;json&#45;14</title>
<g id="a_node21"><a xlink:href="https://www.w3.org/TR/2013/NOTE-rdf-json-20131107/" xlink:title="rdf&#45;json (2013)">
<polygon fill="white" stroke="black" points="816.88,-1126 700.88,-1126 700.88,-1090 822.88,-1090 822.88,-1120 816.88,-1126"/>
<polyline fill="none" stroke="black" points="816.88,-1126 816.88,-1120 "/>
<polyline fill="none" stroke="black" points="822.88,-1120 816.88,-1120 "/>
<text text-anchor="middle" x="761.88" y="-1104.3" font-family="Times,serif" font-size="14.00">rdf&#45;json (2013)</text>
</a>
</g>
</g>
<!-- rdf&#45;json -->
<g id="node31" class="node">
<title>rdf&#45;json</title>
<g id="a_node31"><a xlink:href="https://www.w3.org/TR/rdf-json/" xlink:title="rdf&#45;json">
<ellipse fill="white" stroke="black" cx="1006.07" cy="-1108" rx="46.29" ry="18"/>
<text text-anchor="middle" x="1006.07" y="-1104.3" font-family="Times,serif" font-size="14.00">rdf&#45;json</text>
</a>
</g>
</g>
<!-- rdf&#45;json&#45;14&#45;&gt;rdf&#45;json -->
<g id="edge29" class="edge">
<title>rdf&#45;json&#45;14&#45;&gt;rdf&#45;json</title>
<path fill="none" stroke="black" d="M833.2,-1108C873.97,-1108 924.1,-1108 959.68,-1108"/>
<polygon fill="black" stroke="black" points="823.06,-1108 833.06,-1103.5 828.06,-1108 833.06,-1108 833.06,-1108 833.06,-1108 828.06,-1108 833.06,-1112.5 823.06,-1108 823.06,-1108"/>
</g>
<!-- rdf&#45;primer&#45;&gt;rdf11&#45;primer -->
<g id="edge40" class="edge">
<title>rdf&#45;primer&#45;&gt;rdf11&#45;primer</title>
</g>
<!-- rdf&#45;concepts&#45;&gt;rdf11&#45;concepts -->
<g id="edge41" class="edge">
<title>rdf&#45;concepts&#45;&gt;rdf11&#45;concepts</title>
</g>
<!-- rdf&#45;mt&#45;&gt;rdf11&#45;mt -->
<g id="edge42" class="edge">
<title>rdf&#45;mt&#45;&gt;rdf11&#45;mt</title>
</g>
<!-- rdf&#45;testcases&#45;&gt;rdf11&#45;testcases -->
<g id="edge43" class="edge">
<title>rdf&#45;testcases&#45;&gt;rdf11&#45;testcases</title>
</g>
<!-- rdf&#45;new&#45;&gt;rdf11&#45;new -->
<g id="edge44" class="edge">
<title>rdf&#45;new&#45;&gt;rdf11&#45;new</title>
</g>
<!-- dummy1 -->
<g id="node42" class="node">
<title>dummy1</title>
<ellipse fill="white" stroke="black" cx="515.88" cy="-693" rx="1.8" ry="1.8"/>
</g>
<!-- dummy2 -->
<g id="node43" class="node">
<title>dummy2</title>
<ellipse fill="white" stroke="black" cx="515.88" cy="-731" rx="1.8" ry="1.8"/>
</g>
<!-- dummy3 -->
<g id="node44" class="node">
<title>dummy3</title>
<ellipse fill="white" stroke="black" cx="515.88" cy="-769" rx="1.8" ry="1.8"/>
</g>
<!-- dummy4 -->
<g id="node45" class="node">
<title>dummy4</title>
<ellipse fill="white" stroke="black" cx="515.88" cy="-655" rx="1.8" ry="1.8"/>
</g>
<!-- note -->
<g id="node46" class="node">
<title>note</title>
<polygon fill="white" stroke="black" points="159.19,-794 111.19,-794 111.19,-758 165.19,-758 165.19,-788 159.19,-794"/>
<polyline fill="none" stroke="black" points="159.19,-794 159.19,-788 "/>
<polyline fill="none" stroke="black" points="165.19,-788 159.19,-788 "/>
<text text-anchor="middle" x="138.19" y="-772.3" font-family="Times,serif" font-size="14.00">note</text>
</g>
<!-- recommendation -->
<g id="node47" class="node">
<title>recommendation</title>
<polygon fill="white" stroke="black" points="206.69,-740 69.69,-740 69.69,-704 206.69,-704 206.69,-740"/>
<text text-anchor="middle" x="138.19" y="-718.3" font-family="Times,serif" font-size="14.00">recommendation</text>
</g>
<!-- recommendation&#45;&gt;dummy1 -->
<g id="edge1" class="edge">
<title>recommendation&#45;&gt;dummy1</title>
<path fill="none" stroke="black" d="M206.72,-713.42C229.46,-710.75 254.99,-707.99 278.38,-706 365.08,-698.64 470.02,-694.57 503.82,-693.37"/>
<polygon fill="black" stroke="black" points="504.15,-696.86 514.03,-693.03 503.91,-689.87 504.15,-696.86"/>
<text text-anchor="middle" x="335.88" y="-709.8" font-family="Times,serif" font-size="14.00">manual redirect</text>
</g>
<!-- recommendation&#45;&gt;dummy2 -->
<g id="edge6" class="edge">
<title>recommendation&#45;&gt;dummy2</title>
<path fill="none" stroke="black" d="M206.79,-723.62C299.76,-725.85 460.54,-729.7 503.86,-730.74"/>
<polygon fill="none" stroke="black" points="503.9,-734.24 513.98,-730.98 504.07,-727.24 503.9,-734.24"/>
<text text-anchor="middle" x="335.88" y="-731.8" font-family="Times,serif" font-size="14.00">popup redirect</text>
</g>
<!-- recommendation&#45;&gt;dummy3 -->
<g id="edge10" class="edge">
<title>recommendation&#45;&gt;dummy3</title>
<path fill="none" stroke="black" stroke-dasharray="1,5" d="M206.97,-735.37C229.61,-739.51 255.02,-743.82 278.38,-747 378.08,-760.57 502.57,-768.26 514.03,-768.95"/>
<text text-anchor="middle" x="335.88" y="-762.8" font-family="Times,serif" font-size="14.00">next version</text>
</g>
<!-- shortname (versionless) -->
<g id="node48" class="node">
<title>shortname (versionless)</title>
<ellipse fill="white" stroke="black" cx="138.19" cy="-668" rx="122.38" ry="18"/>
<text text-anchor="middle" x="138.19" y="-664.3" font-family="Times,serif" font-size="14.00">shortname (versionless)</text>
</g>
<!-- shortname (versionless)&#45;&gt;dummy4 -->
<g id="edge19" class="edge">
<title>shortname (versionless)&#45;&gt;dummy4</title>
<path fill="none" stroke="black" d="M240.99,-658.26C253.57,-657.34 266.26,-656.55 278.38,-656 365.17,-652.08 470.06,-653.96 503.83,-654.73"/>
<polygon fill="black" stroke="black" points="514.03,-654.98 503.92,-659.23 509.03,-654.85 504.03,-654.73 504.03,-654.73 504.03,-654.73 509.03,-654.85 504.14,-650.23 514.03,-654.98 514.03,-654.98"/>
<text text-anchor="middle" x="335.88" y="-659.8" font-family="Times,serif" font-size="14.00">alias of</text>
</g>
<!-- shortname (versionned) -->
<g id="node49" class="node">
<title>shortname (versionned)</title>
<ellipse fill="none" stroke="black" stroke-dasharray="1,5" cx="138.19" cy="-614" rx="121.58" ry="18"/>
<text text-anchor="middle" x="138.19" y="-610.3" font-family="Times,serif" font-size="14.00">shortname (versionned)</text>
</g>
<!-- rdf&#45;dataset -->
<g id="node50" class="node">
<title>rdf&#45;dataset</title>
<polygon fill="white" stroke="black" points="1053.57,-980 958.57,-980 958.57,-944 1053.57,-944 1053.57,-980"/>
<text text-anchor="middle" x="1006.07" y="-958.3" font-family="Times,serif" font-size="14.00">rdf&#45;dataset</text>
</g>
<!-- rdf&#45;dataset&#45;&gt;rdf11&#45;datasets -->
<g id="edge45" class="edge">
<title>rdf&#45;dataset&#45;&gt;rdf11&#45;datasets</title>
</g>
</g>
</svg>
